<svg width="53" height="51" viewBox="0 0 53 51" fill="none" xmlns="http://www.w3.org/2000/svg">
<path d="M7.52733 5.29475C9.39228 4.36334 20.582 0.637695 20.582 0.637695C25.105 2.76353 27.5672 4.23143 33.6366 0.637695L42.9614 4.36334L46.6913 8.08898C47.6238 9.02039 49.4887 11.8146 50.4212 13.6774C51.3537 15.5403 52.2861 24.8544 52.2861 24.8544L50.4212 25.7858H42.0289L41.0964 22.0601V50.0025H11.2572V24.8544H1V22.0601L3.79743 9.9518C3.79743 9.9518 5.66238 6.22616 7.52733 5.29475Z" fill="#03A9F4"/>
<path d="M11.2572 24.8544H1V22.0601L3.79743 9.9518C3.79743 9.9518 5.66238 6.22616 7.52733 5.29475C9.39228 4.36334 20.582 0.637695 20.582 0.637695C25.105 2.76353 27.5672 4.23143 33.6366 0.637695L42.9614 4.36334C42.9614 4.36334 45.7588 7.15757 46.6913 8.08898C47.6238 9.02039 49.4887 11.8146 50.4212 13.6774C51.3537 15.5403 52.2861 24.8544 52.2861 24.8544L50.4212 25.7858H42.0289L41.0964 22.0601V50.0025H11.2572V24.8544ZM11.2572 24.8544V22.0601" stroke="white" stroke-width="0.5"/>
</svg>
