<svg width="52" height="49" viewBox="0 0 52 49" fill="none" xmlns="http://www.w3.org/2000/svg">
<path d="M7.20207 4.87726C9.03046 3.96411 20.0008 0.311523 20.0008 0.311523C24.4351 2.39567 26.849 3.83479 32.7994 0.311523L41.9413 3.96411L45.5981 7.61671C46.5123 8.52985 48.3407 11.2693 49.2549 13.0956C50.1691 14.9219 51.0833 24.0534 51.0833 24.0534L49.2549 24.9665H41.0272L40.113 21.3139V48.7084H10.8588V24.0534H0.802734V21.3139L3.54531 9.443C3.54531 9.443 5.37369 5.79041 7.20207 4.87726Z" fill="url(#paint0_linear_3175_7491)"/>
<path d="M10.8588 24.0534H0.802734V21.3139L3.54531 9.443C3.54531 9.443 5.37369 5.79041 7.20207 4.87726C9.03046 3.96411 20.0008 0.311523 20.0008 0.311523C24.4351 2.39567 26.849 3.83479 32.7994 0.311523L41.9413 3.96411C41.9413 3.96411 44.6839 6.70356 45.5981 7.61671C46.5123 8.52985 48.3407 11.2693 49.2549 13.0956C50.1691 14.9219 51.0833 24.0534 51.0833 24.0534L49.2549 24.9665H41.0272L40.113 21.3139V48.7084H10.8588V24.0534ZM10.8588 24.0534V21.3139" stroke="white" stroke-width="0.5"/>
<defs>
<linearGradient id="paint0_linear_3175_7491" x1="25.943" y1="0.311523" x2="25.943" y2="48.7084" gradientUnits="userSpaceOnUse">
<stop stop-color="#00FF6E"/>
<stop offset="1" stop-color="#007131"/>
</linearGradient>
</defs>
</svg>
