<svg width="52" height="49" viewBox="0 0 52 49" fill="none" xmlns="http://www.w3.org/2000/svg">
<path d="M7.31926 4.87726C9.14764 3.96411 20.1179 0.311523 20.1179 0.311523C24.5523 2.39567 26.9662 3.83479 32.9166 0.311523L42.0585 3.96411L45.7153 7.61671C46.6295 8.52985 48.4579 11.2693 49.3721 13.0956C50.2863 14.9219 51.2004 24.0534 51.2004 24.0534L49.3721 24.9665H41.1443L40.2302 21.3139V48.7084H10.976V24.0534H0.919922V21.3139L3.6625 9.443C3.6625 9.443 5.49088 5.79041 7.31926 4.87726Z" fill="url(#paint0_linear_3175_777)"/>
<path d="M10.976 24.0534H0.919922V21.3139L3.6625 9.443C3.6625 9.443 5.49088 5.79041 7.31926 4.87726C9.14764 3.96411 20.1179 0.311523 20.1179 0.311523C24.5523 2.39567 26.9662 3.83479 32.9166 0.311523L42.0585 3.96411C42.0585 3.96411 44.8011 6.70356 45.7153 7.61671C46.6295 8.52985 48.4579 11.2693 49.3721 13.0956C50.2863 14.9219 51.2004 24.0534 51.2004 24.0534L49.3721 24.9665H41.1443L40.2302 21.3139V48.7084H10.976V24.0534ZM10.976 24.0534V21.3139" stroke="white" stroke-width="0.5"/>
<defs>
<linearGradient id="paint0_linear_3175_777" x1="26.0602" y1="0.311523" x2="26.0602" y2="48.7084" gradientUnits="userSpaceOnUse">
<stop stop-color="#F97A2E"/>
<stop offset="1" stop-color="#AE5D05"/>
</linearGradient>
</defs>
</svg>
