<svg width="52" height="49" viewBox="0 0 52 49" fill="none" xmlns="http://www.w3.org/2000/svg">
<path d="M6.9677 4.87726C8.79608 3.96411 19.7664 0.311523 19.7664 0.311523C24.2007 2.39567 26.6146 3.83479 32.5651 0.311523L41.707 3.96411L45.3637 7.61671C46.2779 8.52985 48.1063 11.2693 49.0205 13.0956C49.9347 14.9219 50.8489 24.0534 50.8489 24.0534L49.0205 24.9665H40.7928L39.8786 21.3139V48.7084H10.6245V24.0534H0.568359V21.3139L3.31093 9.443C3.31093 9.443 5.13932 5.79041 6.9677 4.87726Z" fill="url(#paint0_linear_3175_556)"/>
<path d="M10.6245 24.0534H0.568359V21.3139L3.31093 9.443C3.31093 9.443 5.13932 5.79041 6.9677 4.87726C8.79608 3.96411 19.7664 0.311523 19.7664 0.311523C24.2007 2.39567 26.6146 3.83479 32.5651 0.311523L41.707 3.96411C41.707 3.96411 44.4495 6.70356 45.3637 7.61671C46.2779 8.52985 48.1063 11.2693 49.0205 13.0956C49.9347 14.9219 50.8489 24.0534 50.8489 24.0534L49.0205 24.9665H40.7928L39.8786 21.3139V48.7084H10.6245V24.0534ZM10.6245 24.0534V21.3139" stroke="white" stroke-width="0.5"/>
<defs>
<linearGradient id="paint0_linear_3175_556" x1="25.7086" y1="0.311523" x2="25.7086" y2="48.7084" gradientUnits="userSpaceOnUse">
<stop stop-color="#03A9F4"/>
<stop offset="1" stop-color="#00405D"/>
</linearGradient>
</defs>
</svg>
