<svg width="52" height="49" viewBox="0 0 52 49" fill="none" xmlns="http://www.w3.org/2000/svg">
<path d="M7.08489 4.87726C8.91327 3.96411 19.8836 0.311523 19.8836 0.311523C24.3179 2.39567 26.7318 3.83479 32.6822 0.311523L41.8242 3.96411L45.4809 7.61671C46.3951 8.52985 48.2235 11.2693 49.1377 13.0956C50.0519 14.9219 50.9661 24.0534 50.9661 24.0534L49.1377 24.9665H40.91L39.9958 21.3139V48.7084H10.7417V24.0534H0.685547V21.3139L3.42812 9.443C3.42812 9.443 5.2565 5.79041 7.08489 4.87726Z" fill="url(#paint0_linear_3175_7421)"/>
<path d="M10.7417 24.0534H0.685547V21.3139L3.42812 9.443C3.42812 9.443 5.2565 5.79041 7.08489 4.87726C8.91327 3.96411 19.8836 0.311523 19.8836 0.311523C24.3179 2.39567 26.7318 3.83479 32.6822 0.311523L41.8242 3.96411C41.8242 3.96411 44.5667 6.70356 45.4809 7.61671C46.3951 8.52985 48.2235 11.2693 49.1377 13.0956C50.0519 14.9219 50.9661 24.0534 50.9661 24.0534L49.1377 24.9665H40.91L39.9958 21.3139V48.7084H10.7417V24.0534ZM10.7417 24.0534V21.3139" stroke="white" stroke-width="0.5"/>
<defs>
<linearGradient id="paint0_linear_3175_7421" x1="25.8258" y1="0.311523" x2="25.8258" y2="48.7084" gradientUnits="userSpaceOnUse">
<stop stop-color="#463A5B"/>
<stop offset="1" stop-color="#161020"/>
</linearGradient>
</defs>
</svg>
