<svg width="52" height="49" viewBox="0 0 52 49" fill="none" xmlns="http://www.w3.org/2000/svg">
<path d="M6.9677 4.87723C8.79608 3.96408 19.7664 0.311493 19.7664 0.311493C24.2007 2.39564 26.6146 3.83476 32.5651 0.311493L41.707 3.96408L45.3637 7.61668C46.2779 8.52982 48.1063 11.2693 49.0205 13.0956C49.9347 14.9219 50.8489 24.0533 50.8489 24.0533L49.0205 24.9665H40.7928L39.8786 21.3139V48.7083H10.6245V24.0533H0.568359V21.3139L3.31093 9.44297C3.31093 9.44297 5.13932 5.79038 6.9677 4.87723Z" fill="url(#paint0_linear_3175_7435)"/>
<path d="M10.6245 24.0533H0.568359V21.3139L3.31093 9.44297C3.31093 9.44297 5.13932 5.79038 6.9677 4.87723C8.79608 3.96408 19.7664 0.311493 19.7664 0.311493C24.2007 2.39564 26.6146 3.83476 32.5651 0.311493L41.707 3.96408C41.707 3.96408 44.4495 6.70353 45.3637 7.61668C46.2779 8.52982 48.1063 11.2693 49.0205 13.0956C49.9347 14.9219 50.8489 24.0533 50.8489 24.0533L49.0205 24.9665H40.7928L39.8786 21.3139V48.7083H10.6245V24.0533ZM10.6245 24.0533V21.3139" stroke="white" stroke-width="0.5"/>
<defs>
<linearGradient id="paint0_linear_3175_7435" x1="25.7086" y1="0.311493" x2="25.7086" y2="48.7083" gradientUnits="userSpaceOnUse">
<stop stop-color="#5F25B0"/>
<stop offset="1" stop-color="#2C0561"/>
</linearGradient>
</defs>
</svg>
