<svg width="32" height="32" viewBox="0 0 32 32" fill="none" xmlns="http://www.w3.org/2000/svg">
<ellipse cx="16.0003" cy="16.098" rx="13.3333" ry="12.8105" fill="#199300"/>
<path d="M14.667 9.69277H17.3337V12.2549H14.667V9.69277Z" fill="white" fill-opacity="0.54"/>
<path d="M14.667 14.8169H17.3337V22.5032H14.667V14.8169Z" fill="white" fill-opacity="0.54"/>
<path fill-rule="evenodd" clip-rule="evenodd" d="M2.66699 16.098C2.66699 9.02663 8.6403 3.28754 16.0003 3.28754C23.3604 3.28754 29.3337 9.02663 29.3337 16.098C29.3337 23.1694 23.3604 28.9085 16.0003 28.9085C8.6403 28.9085 2.66699 23.1694 2.66699 16.098ZM5.33366 16.098C5.33366 21.7474 10.1203 26.3464 16.0003 26.3464C21.8804 26.3464 26.667 21.7474 26.667 16.098C26.667 10.4486 21.8804 5.84963 16.0003 5.84963C10.1203 5.84963 5.33366 10.4486 5.33366 16.098Z" fill="white" fill-opacity="0.54"/>
</svg>
