<svg width="52" height="51" viewBox="0 0 52 51" fill="none" xmlns="http://www.w3.org/2000/svg">
<path d="M6.83159 5.66999C8.70172 4.73599 19.9225 1 19.9225 1C24.4581 3.13173 26.9271 4.60372 33.0134 1L42.3641 4.73599L46.1043 8.47198C47.0394 9.40598 48.9095 12.208 49.8446 14.076C50.7796 15.944 51.7147 25.2839 51.7147 25.2839L49.8446 26.2179H41.429L40.4939 22.4819V50.5019H10.5718V25.2839H0.286133V22.4819L3.09133 10.34C3.09133 10.34 4.96146 6.60398 6.83159 5.66999Z" fill="#276556"/>
<path d="M10.5718 25.2839H0.286133V22.4819L3.09133 10.34C3.09133 10.34 4.96146 6.60399 6.83159 5.66999C8.70172 4.73599 19.9225 1 19.9225 1C24.4581 3.13173 26.9271 4.60372 33.0134 1L42.3641 4.73599C42.3641 4.73599 45.1693 7.53798 46.1043 8.47198C47.0394 9.40598 48.9095 12.208 49.8446 14.076C50.7796 15.944 51.7147 25.2839 51.7147 25.2839L49.8446 26.2179H41.429L40.4939 22.4819V50.5019H10.5718V25.2839ZM10.5718 25.2839V22.4819" stroke="white" stroke-width="0.5"/>
<path d="M27.0071 19.5599L25.6397 19.5599V24.9746L20.2188 24.9746V26.3404L25.6397 26.3404V31.7551L27.0071 31.7551L27.0071 26.3404H32.4279V24.9746H27.0071L27.0071 19.5599Z" fill="white"/>
</svg>
