<svg width="43" height="40" viewBox="0 0 43 40" fill="none" xmlns="http://www.w3.org/2000/svg">
<path d="M6.26061 4.50793C7.76364 3.78281 16.7818 0.882324 16.7818 0.882324C20.4271 2.53732 22.4114 3.68011 27.303 0.882324L34.8182 3.78281L37.8242 6.68329C38.5758 7.40841 40.0788 9.58377 40.8303 11.034C41.5818 12.4842 42.3333 19.7355 42.3333 19.7355L40.8303 20.4606H34.0667L33.3151 17.5601V39.3137H9.26667V19.7355H1V17.5601L3.25455 8.13353C3.25455 8.13353 4.75758 5.23305 6.26061 4.50793Z" fill="#276556"/>
<path d="M9.26667 19.7355H1V17.5601L3.25455 8.13353C3.25455 8.13353 4.75758 5.23305 6.26061 4.50793C7.76364 3.78281 16.7818 0.882324 16.7818 0.882324C20.4271 2.53732 22.4114 3.68011 27.303 0.882324L34.8182 3.78281C34.8182 3.78281 37.0727 5.95817 37.8242 6.68329C38.5758 7.40841 40.0788 9.58377 40.8303 11.034C41.5818 12.4842 42.3333 19.7355 42.3333 19.7355L40.8303 20.4606H34.0667L33.3151 17.5601V39.3137H9.26667V19.7355ZM9.26667 19.7355V17.5601" stroke="white" stroke-width="0.5"/>
</svg>
